# xmcd CD database file
#
# Track frame offsets:
#	150
#	46556
#	117360
#	142600
#	198907
#	280863
#	304946
#
# Disc length: 4139 seconds
#
# Revision: 0
# Processed by: cddbd v1.5.2PL0 Copyright (c) Steve Scherf et al.
# Submitted via: CDex 1.99.1
#
DISCID=55102907
DTITLE=Gillespie, Dizzy (1917-1993) - Dizzy Gillespie 1973 - Live at Ronnie Scott's, Vol. 3
DYEAR=1973
DGENRE=Jazz
TTITLE0=The Crossing
TTITLE1=Ole' for the Gypsy
TTITLE2=Something in Your Smile
TTITLE3=No More Blues
TTITLE4=Olinga
TTITLE5=Oo Popa Dah
TTITLE6=Birks Works (Chaser)
EXTD=YEAR: 1973
EXTT0=
EXTT1=
EXTT2=
EXTT3=
EXTT4=
EXTT5=
EXTT6=
PLAYORDER=
